<svg data-v-ae461b39=""
    xmlns="http://www.w3.org/2000/svg" viewBox="0 0 256.8 256.8" width="256.8" height="256.8" xml:space="preserve" alt="Vikunja" class="logo">
    <path fill="#196aff" d="M226.9 46.8A126 126 0 0 0 128 0a127.2 127.2 0 0 0-99 46.8A127 127 0 0 0 0 128c0 34.2 13.3 66.3 37.5 90.5A127.2 127.2 0 0 0 128 256c34.2 0 66.3-13.3 90.5-37.5A127.2 127.2 0 0 0 256 128a130 130 0 0 0-29.1-81.2"></path>
    <path fill="#fff" d="M167.6 162.1c4.8-14 12.6-18.2 13.6-39.8.4-7.5-2-31.6-2-31.6s3.8-9.6-3.4-20.3c-11.1-16.7-34-17.8-46-17.8-12.1 0-34.8 1.1-45.9 17.8-7.2 10.7-3.4 20.3-3.4 20.3L78.2 114a60.8 60.8 0 0 0 3.8 28c1.9 5.3 4.9 10.7 7.2 16.1 6.9 16.5 1.1 36.8 1.5 54.6.3 12.6-2.7 25.3-3.9 37.6a127.6 127.6 0 0 0 87.2-1.7c-2.7-15.4-5.9-30-6.4-35.6-1.4-16.9-5.5-34.7 0-50.9"></path>
    <path fill="#fff" d="M79.5 64c.2 2.4.4 5 1.1 7.4.2.8.6 2.6 1.5 3 1.2.3 3.5-1.2 4.3-1.8l4.9-3.7 3.2-2.2c1.1-.9 2-2 2.9-3 1.1-1.2 2-2.5 2.8-3.9.7-1 5-1.8 5.7-2.8.7-1.1 0-2.5 0-3.8 0-10 .7-19.7 1-29.4.2-6.6 2.8-14.5-7.2-11.4C78.3 19 78.6 48.5 79.5 63.9M173.7 77.8l-.9-.6c-1.2-1-2.3-1.8-3.3-2.9l-3.8-3.8-3.3-3.5-2-2.4-.7-1.4c-.3-.7-5.3-1.4-4.8-2 .8-1.1 2.7-2 3.2-3.3 2.3-6.5 3.3-32.6 3.5-39.3.8-17 15.7.8 18.3 7.7 7.6 20 3.1 34.5-6.1 51.5"></path>
    <path fill="#f1e6d3" d="M153.3 143.4c0-9.9-1.2-13.8-6.7-18.6-3.4-3-7.4-4.2-13.8-4-6.4-.2-11 1.7-14.3 5.2-5 5.2-6.4 8.3-6.4 18.1 0 5.3 5.7 17 7.5 19.8 2.8 4.8 8 6.5 13.2 6.2 5.1.3 10.3-1.4 13.2-6.2a56.4 56.4 0 0 0 7.3-20.5"></path>
    <path fill="#f1d7d4" d="M88 73c-1.3-11.5-5.1-32 8.2-44.2 1.5-1.4 1.9 3.2 2.1 5 .4 2.6 0 9.9 0 12.4.2 4.8 1.2 7.3.7 9.5-1.3 6-2.3 5.7-3.5 9.3-2.5 7.3-7.1 11.1-7.5 8M171.4 70.7c1.3 2.4 4.9-10.7 6-16.4 1-5.4 2.4-12.5.5-17.9-1-2.8-7-11.2-7.7-8.4-.3 1.2-.5 9.5-1.2 13.5-.8 5-2.3 9.9-2.4 14.9 0 11.3 3.4 11.7 4.8 14.3"></path>
    <path fill="#faeee0" d="M127.4 205.8c-.3.9-2.5 1.5-3.3 1.8-2 .6-3.8-1-4.9-2.3-1.5-1.8-1.5-4.7-2.1-6.8-.4-1.3-2.6-1.5-3.3-.3-2.2 4-10.8-3.5-8.8-6 1.3-1.7-1.9-3.1-3.2-1.5-3.8 4.8 6.6 13.8 12.5 11.4l1 3.5c1 2.3 3.3 3.7 5.5 5 3.1 1.6 9.1-1.3 10-4.1.7-2-2.8-2.6-3.4-.7M154.8 176.7c.3 1.3.4 5.8-2.1 3.4-1-1-3-.4-3.1.9-.2 3.1-3.3 3.2-6 2.2-2.2-.7-3.3 2.3-1.2 3 4 1.4 8.3.6 10-2.4 1.3.7 2.8.8 4-.3 2.2-2 2.5-4.9 1.9-7.5-.5-2-4-1.3-3.5.7M161.1 241.9c-1 1.9-2.6 1.8-4.5 1-1.3-.6-3 .3-2.6 1.7.9 2.7-2.6 3.5-5 2.6-2-.9-3.8 1.8-1.7 2.7 4.2 1.7 9.6.2 10.3-3.5 2.7.4 5.3-.3 6.6-3 1-1.8-2.2-3.4-3-1.5M133.8 94.7c-.5 2.7-5.5-.5-6.8-1.3-1-.8-2.5-.3-2.6 1-.2 1.6-2.5 1.1-3.5 1-2-.5-3.7-1.7-3.7-3.5s1-3.7 1.6-5.4c.4-1.1-1.1-2.3-2.2-1.6-2 1.3-11.9 2.5-8-1.8 1.3-1.3-1-3.3-2.2-1.9-1.8 2-3 6.5.9 7.5 2 .5 5 .4 7.6-.1-1 3.4-1.3 6.5 3 8.6 3 1.5 7 1.5 8.8-.8 3.6 2 9.3 3.9 10-1 .3-1.7-2.7-2.5-3-.7"></path>
    <path fill="#494949" d="M116.9 157c5.2.5 10.5 1.7 15.8 1.5 3.3-.2 6.8-.6 10.2-1.1 2.4-.4 5.4-.8 7-2.6.2 6-12.3 7.9-17.2 8-5.6.1-11.9-2.3-15.8-5.8"></path>
    <path fill="#494949" d="M131 144.5c-.6 3.9-.7 7.8-.3 11.6 0 1-.2 3.5 1.2 4 1 .4 2.4-.4 2.6-1.4.3-1.6-.4-3.7-.5-5.4 0-2 0-4 .2-6 .2-1.2.8-2.8-.5-3.6-1-.6-2.5-.4-2.7.8"></path>
    <path fill="#494949" d="M141.3 135.1c-3.2.2-6.1 2-8.5 3.6-2.1-1.4-5.4-2.7-8-2-1.7.5-.2 1 .4 1.4a15 15 0 0 1 3.2 3c1.4 1.7 2.6 3.5 4 5 1.1-.6 2-1.4 3-2.2l4.3-5.7 1-1.5c.4-.5 1.5-1.2.6-1.6"></path>
    <path fill="#2c3844" d="M101.3 113.8c1.6-4 3.3-9.2 7.5-8.3 3.3.6 7.6 11.4 4.8 10.4-1.5-.6-2.7-5.5-5.5-6.1-1.8-.4-4.3 5.8-6.7 6.4-1.1.3-.5-1.4 0-2.4M147.2 113.8c1.6-4 3.2-9.2 7.5-8.3 3.2.6 7.6 11.4 4.8 10.4-1.5-.6-2.7-5.5-5.5-6.1-1.8-.4-4.3 5.8-6.7 6.4-1.1.3-.6-1.4-.1-2.4"></path>
</svg>
